<svg xmlns="http://www.w3.org/2000/svg" width="1200" height="630" viewBox="0 0 1200 630" role="img" aria-label="Signy, gestão de academia">
  <rect width="1200" height="630" fill="#163f34"/>
  <circle cx="1050" cy="110" r="290" fill="none" stroke="#315f51" stroke-width="2"/>
  <circle cx="1050" cy="110" r="210" fill="none" stroke="#315f51" stroke-width="2"/>
  <g transform="translate(76 76) scale(1.25)">
    <rect width="64" height="64" rx="16" fill="#f5f7f1"/>
    <path d="M43 17c-3.6-3.3-8.1-5-13.5-5C21.3 12 16 16 16 22c0 6.1 5.2 8.9 14.8 10.8C40.5 34.7 46 37.5 46 43c0 6.4-6 10-15.3 10-7 0-12.8-2-17.7-6" fill="none" stroke="#174c3d" stroke-width="8" stroke-linecap="round" stroke-linejoin="round"/>
    <path d="M43 12.5v9M13 42.5v9" fill="none" stroke="#8daf58" stroke-width="5" stroke-linecap="round"/>
  </g>
  <text x="174" y="130" fill="#f5f7f1" font-family="Segoe UI,Arial,sans-serif" font-size="66" font-weight="700" letter-spacing="-3">signy</text>
  <text x="178" y="164" fill="#b7d583" font-family="Segoe UI,Arial,sans-serif" font-size="15" font-weight="700" letter-spacing="4.2">GESTÃO DE ACADEMIAS</text>
  <text x="78" y="340" fill="#f2f6ed" font-family="Inter,Segoe UI,Arial,sans-serif" font-size="58" font-weight="620" letter-spacing="-2">Mais movimento.</text>
  <text x="78" y="410" fill="#f2f6ed" font-family="Inter,Segoe UI,Arial,sans-serif" font-size="58" font-weight="620" letter-spacing="-2">Menos burocracia.</text>
  <text x="82" y="480" fill="#b9cabd" font-family="Inter,Segoe UI,Arial,sans-serif" font-size="24">Alunos, treinos e rotina em um só lugar.</text>
  <g transform="translate(865 300) rotate(-12)" fill="none" stroke="#a9c58e" stroke-width="15" stroke-linecap="round">
    <path d="M35 70v100M5 90v60M225 70v100M255 90v60M35 120h190"/>
  </g>
  <rect x="78" y="548" width="1044" height="2" fill="#315f51"/>
</svg>
